<?xml version="1.0" encoding="UTF-8" standalone="no"?>
<svg width="256.117mm" height="97.0139mm"
 viewBox="0 0 726 275"
 xmlns="http://www.w3.org/2000/svg" xmlns:xlink="http://www.w3.org/1999/xlink"  version="1.2" baseProfile="tiny">
<title>Qt SVG Document</title>
<desc>Generated with Qt</desc>
<defs>
</defs>
<g fill="none" stroke="black" stroke-width="1" fill-rule="evenodd" stroke-linecap="square" stroke-linejoin="bevel" >

<g fill="#ffffff" fill-opacity="1" stroke="none" transform="matrix(1,0,0,1,0,0)"
font-family="Noto Sans" font-size="9" font-weight="400" font-style="normal" 
>
<rect x="0" y="0" width="726" height="275"/>
</g>

<g fill="none" stroke="#000000" stroke-opacity="1" stroke-width="1" stroke-linecap="round" stroke-linejoin="round" transform="matrix(1,0,0,1,0,0)"
font-family="Noto Sans" font-size="9" font-weight="400" font-style="normal" 
>
<polyline fill="none" vector-effect="non-scaling-stroke" points="31,128 204,128 " />
<polyline fill="none" vector-effect="non-scaling-stroke" points="549,126 721,126 " />
<polyline fill="none" vector-effect="non-scaling-stroke" points="397,208 397,206 396,204 396,202 395,200 395,199 394,197 393,195 392,193 390,192 389,190 387,189 386,188 384,187 382,186 380,185 378,185 376,184 374,184 372,184 370,184 368,185 366,185 365,186 363,186 361,187 359,188 358,189 356,191 355,192 353,194 352,195 351,197 350,199 350,201 349,203 349,205 349,207 349,209 349,211 349,213 349,215 350,216 351,218 352,220 353,222 354,223 355,225 357,226 358,228 360,229 362,230 363,230 365,231 367,232 369,232 371,232 373,232 375,232 377,232 379,231 381,231 383,230 385,229 386,228 388,227 389,225 391,224 392,222 393,221 394,219 395,217 396,215 396,213 396,211 397,209 397,208 " />
<polyline fill="none" vector-effect="non-scaling-stroke" points="379,208 378,206 377,204 376,203 374,202 372,202 370,203 368,204 368,206 367,208 368,210 369,212 370,213 372,213 374,213 376,212 378,211 378,209 379,208 " />
<polyline fill="none" vector-effect="non-scaling-stroke" points="374,185 373,63 " />
<polyline fill="none" vector-effect="non-scaling-stroke" points="610,127 672,127 " />
<polyline fill="none" vector-effect="non-scaling-stroke" points="672,127 672,67 " />
<polyline fill="none" vector-effect="non-scaling-stroke" points="672,67 610,67 " />
<polyline fill="none" vector-effect="non-scaling-stroke" points="610,67 610,127 " />
<polyline fill="none" vector-effect="non-scaling-stroke" points="655,54 654,52 654,50 653,48 652,46 651,45 649,44 647,43 645,42 643,42 641,42 639,42 638,43 636,44 634,45 633,47 632,48 631,50 631,52 631,54 631,56 631,58 632,60 633,61 635,63 636,64 638,65 640,66 642,66 644,66 646,65 648,65 649,64 651,62 652,61 653,59 654,57 654,55 655,54 " />
<polyline fill="none" vector-effect="non-scaling-stroke" points="635,103 635,99 " />
<polyline fill="none" vector-effect="non-scaling-stroke" points="635,99 635,97 634,95 633,93 631,92 629,91 627,91 625,91 623,92 622,93 621,95 620,97 620,99 " />
<polyline fill="none" vector-effect="non-scaling-stroke" points="620,99 620,103 " />
<polyline fill="none" vector-effect="non-scaling-stroke" points="620,103 620,105 621,106 622,108 623,109 625,110 627,110 629,110 631,109 633,108 634,107 635,105 635,103 " />
<polyline fill="none" vector-effect="non-scaling-stroke" points="627,91 629,91 631,90 633,89 634,87 635,86 635,84 635,82 634,80 633,78 631,77 629,76 627,76 " />
<polyline fill="none" vector-effect="non-scaling-stroke" points="627,76 625,76 623,77 622,78 621,80 620,81 620,83 620,85 621,87 622,89 623,90 625,91 627,91 " />
<polyline fill="none" vector-effect="non-scaling-stroke" points="646,83 654,76 " />
<polyline fill="none" vector-effect="non-scaling-stroke" points="654,76 654,110 " />
<polyline fill="none" vector-effect="non-scaling-stroke" points="168,129 203,129 " />
<polyline fill="none" vector-effect="non-scaling-stroke" points="203,129 203,86 " />
<polyline fill="none" vector-effect="non-scaling-stroke" points="203,86 168,86 " />
<polyline fill="none" vector-effect="non-scaling-stroke" points="168,86 168,129 " />
<polyline fill="none" vector-effect="non-scaling-stroke" points="173,101 174,100 " />
<polyline fill="none" vector-effect="non-scaling-stroke" points="180,104 181,102 180,100 179,98 177,98 175,98 174,99 174,100 " />
<polyline fill="none" vector-effect="non-scaling-stroke" points="180,104 173,115 " />
<polyline fill="none" vector-effect="non-scaling-stroke" points="173,115 181,115 " />
<polyline fill="none" vector-effect="non-scaling-stroke" points="187,100 187,98 " />
<polyline fill="none" vector-effect="non-scaling-stroke" points="187,98 194,98 " />
<polyline fill="none" vector-effect="non-scaling-stroke" points="194,98 190,115 " />
<polyline fill="none" vector-effect="non-scaling-stroke" points="120,129 146,129 " />
<polyline fill="none" vector-effect="non-scaling-stroke" points="146,129 146,101 " />
<polyline fill="none" vector-effect="non-scaling-stroke" points="146,101 120,101 " />
<polyline fill="none" vector-effect="non-scaling-stroke" points="120,101 120,129 " />
<polyline fill="none" vector-effect="non-scaling-stroke" points="135,116 132,116 " />
<polyline fill="none" vector-effect="non-scaling-stroke" points="129,113 130,114 131,116 132,116 " />
<polyline fill="none" vector-effect="non-scaling-stroke" points="129,113 129,112 " />
<polyline fill="none" vector-effect="non-scaling-stroke" points="135,112 135,110 134,109 132,109 131,109 130,110 129,111 129,112 " />
<polyline fill="none" vector-effect="non-scaling-stroke" points="135,112 135,116 " />
<polyline fill="none" vector-effect="non-scaling-stroke" points="131,122 132,121 134,119 135,118 135,116 " />
<polyline fill="none" vector-effect="non-scaling-stroke" points="70,70 38,129 " />
<polyline fill="none" vector-effect="non-scaling-stroke" points="38,129 105,127 " />
<polyline fill="none" vector-effect="non-scaling-stroke" points="105,127 70,70 " />
<polyline fill="none" vector-effect="non-scaling-stroke" points="193,77 193,75 192,73 191,71 189,70 188,69 186,69 184,69 182,70 180,71 179,72 178,74 177,76 177,78 178,80 179,81 180,83 182,84 184,85 185,85 187,84 189,84 191,82 192,81 193,79 193,77 " />
<polyline fill="none" vector-effect="non-scaling-stroke" points="139,95 138,93 138,92 136,90 134,89 132,89 130,89 129,90 127,91 126,93 126,95 126,97 127,99 128,100 130,101 132,102 134,102 135,101 137,100 138,98 139,96 139,95 " />
<polyline fill="none" vector-effect="non-scaling-stroke" points="5,113 6,115 7,116 9,117 10,116 12,115 13,114 13,113 " />
<polyline fill="none" vector-effect="non-scaling-stroke" points="5,113 5,107 " />
<polyline fill="none" vector-effect="non-scaling-stroke" points="13,107 12,106 11,104 9,104 7,104 6,105 5,107 " />
<polyline fill="none" vector-effect="non-scaling-stroke" points="13,107 13,113 " />
<polyline fill="none" vector-effect="non-scaling-stroke" points="17,104 17,117 " />
<polyline fill="none" vector-effect="non-scaling-stroke" points="17,117 20,117 " />
<polyline fill="none" vector-effect="non-scaling-stroke" points="20,117 22,116 22,116 23,115 " />
<polyline fill="none" vector-effect="non-scaling-stroke" points="23,115 23,110 " />
<polyline fill="none" vector-effect="non-scaling-stroke" points="23,110 22,109 22,108 21,108 20,108 " />
<polyline fill="none" vector-effect="non-scaling-stroke" points="20,108 17,108 " />
<polyline fill="none" vector-effect="non-scaling-stroke" points="27,121 28,121 " />
<polyline fill="none" vector-effect="non-scaling-stroke" points="28,121 29,121 29,120 30,119 " />
<polyline fill="none" vector-effect="non-scaling-stroke" points="30,119 30,108 " />
<polyline fill="none" vector-effect="non-scaling-stroke" points="30,105 30,104 " />
<polyline fill="none" vector-effect="non-scaling-stroke" points="40,117 36,117 " />
<polyline fill="none" vector-effect="non-scaling-stroke" points="34,115 34,116 35,116 36,117 " />
<polyline fill="none" vector-effect="non-scaling-stroke" points="34,115 34,111 " />
<polyline fill="none" vector-effect="non-scaling-stroke" points="40,111 40,110 39,109 37,108 36,108 35,109 34,111 " />
<polyline fill="none" vector-effect="non-scaling-stroke" points="40,111 40,112 " />
<polyline fill="none" vector-effect="non-scaling-stroke" points="40,112 34,112 " />
<polyline fill="none" vector-effect="non-scaling-stroke" points="49,108 46,108 " />
<polyline fill="none" vector-effect="non-scaling-stroke" points="46,108 45,108 45,109 44,110 " />
<polyline fill="none" vector-effect="non-scaling-stroke" points="44,110 44,115 " />
<polyline fill="none" vector-effect="non-scaling-stroke" points="44,115 44,116 45,116 46,117 " />
<polyline fill="none" vector-effect="non-scaling-stroke" points="46,117 49,117 " />
<polyline fill="none" vector-effect="non-scaling-stroke" points="54,117 54,104 " />
<polyline fill="none" vector-effect="non-scaling-stroke" points="53,108 57,108 " />
<polyline fill="none" vector-effect="non-scaling-stroke" points="61,115 67,115 " />
<polyline fill="none" vector-effect="non-scaling-stroke" points="61,110 67,110 " />
<polyline fill="none" vector-effect="non-scaling-stroke" points="74,104 72,114 " />
<polyline fill="none" vector-effect="non-scaling-stroke" points="72,114 79,114 " />
<polyline fill="none" vector-effect="non-scaling-stroke" points="77,111 77,117 " />
<polyline fill="none" vector-effect="non-scaling-stroke" points="89,104 83,104 " />
<polyline fill="none" vector-effect="non-scaling-stroke" points="83,104 83,110 " />
<polyline fill="none" vector-effect="non-scaling-stroke" points="83,110 86,110 " />
<polyline fill="none" vector-effect="non-scaling-stroke" points="89,112 88,111 87,110 86,110 " />
<polyline fill="none" vector-effect="non-scaling-stroke" points="89,112 89,114 " />
<polyline fill="none" vector-effect="non-scaling-stroke" points="86,117 87,116 88,115 89,114 " />
<polyline fill="none" vector-effect="non-scaling-stroke" points="86,117 83,117 " />
<polyline fill="none" vector-effect="non-scaling-stroke" points="641,207 641,126 " />
<polyline fill="none" vector-effect="non-scaling-stroke" points="117,206 117,128 " />
<polyline fill="none" vector-effect="non-scaling-stroke" points="117,207 641,207 " />
</g>
</g>
</svg>
